<svg width="14" height="14" viewBox="0 0 14 14" fill="none" xmlns="http://www.w3.org/2000/svg">
<g clip-path="url(#clip0_54_17)">
<path d="M13.7273 2.92072C14.3632 4.8854 13.8311 6.8846 12.7096 8.3909C11.9694 9.41235 11.0848 10.2927 10.1803 11.0624C9.34825 11.8369 7.48613 13.3695 6.99253 13.4121C6.55627 13.3287 6.06675 12.8353 5.72041 12.5814C3.7742 11.102 1.67918 9.30287 0.61691 7.33576C-0.273724 5.44727 -0.275357 3.11143 1.11079 1.66356C2.90816 0.0431968 5.61788 0.359819 6.99252 2.05269C7.3617 1.57377 7.81567 1.19711 8.35445 0.922735C10.5386 0.0509085 12.8108 0.939278 13.7273 2.92072V2.92072Z" fill="#FFEF5E"/>
</g>
<defs>
<clipPath id="clip0_54_17">
<rect width="14" height="14" fill="white"/>
</clipPath>
</defs>
</svg>
